<svg id="logo" xmlns="http://www.w3.org/2000/svg" width="31.006" height="31.055" viewBox="0 0 31.006 31.055">
  <g id="لوگو_گوشه_گرد_100_-_100" data-name="لوگو گوشه گرد 100 - 100" transform="translate(0.01 -0.008)">
    <path id="Path_1" data-name="Path 1" d="M274.216,163.963l-.1-.049a.437.437,0,0,1-.245-.391c0-.048,0-.1,0-.143V136.555a.414.414,0,0,0-.357-.41,1.038,1.038,0,0,0-.108,0h-8.952a.635.635,0,0,0-.192.022.429.429,0,0,0-.27.393v8.6a.408.408,0,0,1-.353.388h-2c-.04,0-.08,0-.119,0a.412.412,0,0,1-.351-.391v-8.621a.464.464,0,0,0-.116-.32.376.376,0,0,0-.289-.128c-.353,0-.706.008-1.059.012-.123,0-.245.006-.367,0a.371.371,0,0,1-.279-.123.456.456,0,0,1-.118-.306c-.005-.163,0-.327,0-.491v-1.741a1.473,1.473,0,0,1,.005-.155.4.4,0,0,1,.326-.362,1.087,1.087,0,0,1,.14-.007h16.653a1.014,1.014,0,0,1,.151.009.379.379,0,0,1,.3.307.4.4,0,0,0,.02.055v30.3c-.005.01-.015.019-.016.029a.384.384,0,0,1-.243.312l-.086.043Z" transform="translate(-245.543 -132.9)" fill="#fff"/>
    <path id="Path_2" data-name="Path 2" d="M104.69,322.3a.813.813,0,0,0,.052-.078A.389.389,0,0,1,105.1,322h11.429a.386.386,0,0,1,.367.359v2.011a.759.759,0,0,1-.014.171.394.394,0,0,1-.353.289c-.047,0-.094,0-.14,0h-8.269a.754.754,0,0,0-.161.009.388.388,0,0,0-.3.363v9.1a.387.387,0,0,0,.37.356h19.173a.873.873,0,0,1,.183.013.376.376,0,0,1,.3.37v1.849a.376.376,0,0,1-.247.36l-.1.042h-22.3a.277.277,0,0,0-.044-.028.408.408,0,0,1-.264-.248.2.2,0,0,0-.038-.048Z" transform="translate(-104.699 -306.227)" fill="#fff"/>
    <path id="Path_3" data-name="Path 3" d="M104.681,133.251c.018-.03.038-.06.055-.092a.378.378,0,0,1,.324-.219H112.6a.384.384,0,0,1,.382.4v2.087a.39.39,0,0,1-.385.4h-4.614a.7.7,0,0,0-.15.01.389.389,0,0,0-.3.365v6.671a.371.371,0,0,1-.1.3.589.589,0,0,1-.4.2h-.908c-.3,0-.591,0-.886,0a.613.613,0,0,1-.5-.27c-.02-.025-.039-.051-.059-.076Z" transform="translate(-104.69 -132.93)" fill="#fff"/>
  </g>
</svg>
